<mxfile host="Electron" modified="2023-05-24T12:32:41.158Z" agent="Mozilla/5.0 (Windows NT 10.0; Win64; x64) AppleWebKit/537.36 (KHTML, like Gecko) draw.io/21.2.8 Chrome/112.0.5615.165 Electron/24.2.0 Safari/537.36" etag="zA54XpZluoA_lr4e7_yD" version="21.2.8" type="device">
  <diagram name="Page-1" id="aFyZbWMhUYAhlVZwSfxb">
    <mxGraphModel dx="2314" dy="1104" grid="1" gridSize="10" guides="1" tooltips="1" connect="1" arrows="1" fold="1" page="1" pageScale="1" pageWidth="850" pageHeight="1100" math="0" shadow="0">
      <root>
        <mxCell id="0" />
        <mxCell id="1" parent="0" />
        <mxCell id="BcjCfBdmmmzexc7s9DQg-18" style="edgeStyle=orthogonalEdgeStyle;rounded=0;orthogonalLoop=1;jettySize=auto;html=1;" edge="1" parent="1" source="BcjCfBdmmmzexc7s9DQg-1" target="BcjCfBdmmmzexc7s9DQg-19">
          <mxGeometry relative="1" as="geometry">
            <mxPoint x="490" y="140" as="targetPoint" />
          </mxGeometry>
        </mxCell>
        <mxCell id="BcjCfBdmmmzexc7s9DQg-1" value="start" style="strokeWidth=2;html=1;shape=mxgraph.flowchart.start_1;whiteSpace=wrap;" vertex="1" parent="1">
          <mxGeometry x="450" y="20" width="80" height="40" as="geometry" />
        </mxCell>
        <mxCell id="BcjCfBdmmmzexc7s9DQg-42" style="edgeStyle=orthogonalEdgeStyle;rounded=0;orthogonalLoop=1;jettySize=auto;html=1;" edge="1" parent="1" source="BcjCfBdmmmzexc7s9DQg-19" target="BcjCfBdmmmzexc7s9DQg-43">
          <mxGeometry relative="1" as="geometry">
            <mxPoint x="490" y="200" as="targetPoint" />
          </mxGeometry>
        </mxCell>
        <mxCell id="BcjCfBdmmmzexc7s9DQg-19" value="ant, kp_ant, ant_full&lt;br&gt;enq, deq, disp, ex" style="shape=hexagon;perimeter=hexagonPerimeter2;whiteSpace=wrap;html=1;fixedSize=1;" vertex="1" parent="1">
          <mxGeometry x="420" y="100" width="140" height="70" as="geometry" />
        </mxCell>
        <mxCell id="BcjCfBdmmmzexc7s9DQg-44" style="edgeStyle=orthogonalEdgeStyle;rounded=0;orthogonalLoop=1;jettySize=auto;html=1;exitX=0;exitY=0.5;exitDx=0;exitDy=0;" edge="1" parent="1" source="BcjCfBdmmmzexc7s9DQg-43" target="BcjCfBdmmmzexc7s9DQg-45">
          <mxGeometry relative="1" as="geometry">
            <mxPoint x="260" y="280" as="targetPoint" />
          </mxGeometry>
        </mxCell>
        <mxCell id="BcjCfBdmmmzexc7s9DQg-46" style="edgeStyle=orthogonalEdgeStyle;rounded=0;orthogonalLoop=1;jettySize=auto;html=1;" edge="1" parent="1" source="BcjCfBdmmmzexc7s9DQg-43" target="BcjCfBdmmmzexc7s9DQg-47">
          <mxGeometry relative="1" as="geometry">
            <mxPoint x="370" y="330" as="targetPoint" />
          </mxGeometry>
        </mxCell>
        <mxCell id="BcjCfBdmmmzexc7s9DQg-48" style="edgeStyle=orthogonalEdgeStyle;rounded=0;orthogonalLoop=1;jettySize=auto;html=1;" edge="1" parent="1" source="BcjCfBdmmmzexc7s9DQg-43" target="BcjCfBdmmmzexc7s9DQg-49">
          <mxGeometry relative="1" as="geometry">
            <mxPoint x="590" y="370" as="targetPoint" />
          </mxGeometry>
        </mxCell>
        <mxCell id="BcjCfBdmmmzexc7s9DQg-50" style="edgeStyle=orthogonalEdgeStyle;rounded=0;orthogonalLoop=1;jettySize=auto;html=1;" edge="1" parent="1" source="BcjCfBdmmmzexc7s9DQg-43" target="BcjCfBdmmmzexc7s9DQg-51">
          <mxGeometry relative="1" as="geometry">
            <mxPoint x="720" y="280" as="targetPoint" />
          </mxGeometry>
        </mxCell>
        <mxCell id="BcjCfBdmmmzexc7s9DQg-43" value="print&lt;br&gt;enq, deq, disp, ex" style="shape=parallelogram;perimeter=parallelogramPerimeter;whiteSpace=wrap;html=1;fixedSize=1;" vertex="1" parent="1">
          <mxGeometry x="425" y="201" width="130" height="59" as="geometry" />
        </mxCell>
        <mxCell id="BcjCfBdmmmzexc7s9DQg-54" style="edgeStyle=orthogonalEdgeStyle;rounded=0;orthogonalLoop=1;jettySize=auto;html=1;" edge="1" parent="1" source="BcjCfBdmmmzexc7s9DQg-45" target="BcjCfBdmmmzexc7s9DQg-55">
          <mxGeometry relative="1" as="geometry">
            <mxPoint x="290" y="390" as="targetPoint" />
          </mxGeometry>
        </mxCell>
        <mxCell id="BcjCfBdmmmzexc7s9DQg-63" value="No" style="edgeLabel;html=1;align=center;verticalAlign=middle;resizable=0;points=[];" vertex="1" connectable="0" parent="BcjCfBdmmmzexc7s9DQg-54">
          <mxGeometry x="-0.6046" y="2" relative="1" as="geometry">
            <mxPoint as="offset" />
          </mxGeometry>
        </mxCell>
        <mxCell id="BcjCfBdmmmzexc7s9DQg-56" style="edgeStyle=orthogonalEdgeStyle;rounded=0;orthogonalLoop=1;jettySize=auto;html=1;" edge="1" parent="1" source="BcjCfBdmmmzexc7s9DQg-45" target="BcjCfBdmmmzexc7s9DQg-57">
          <mxGeometry relative="1" as="geometry">
            <mxPoint x="330" y="440" as="targetPoint" />
          </mxGeometry>
        </mxCell>
        <mxCell id="BcjCfBdmmmzexc7s9DQg-64" value="Yes" style="edgeLabel;html=1;align=center;verticalAlign=middle;resizable=0;points=[];" vertex="1" connectable="0" parent="BcjCfBdmmmzexc7s9DQg-56">
          <mxGeometry x="-0.7524" y="-2" relative="1" as="geometry">
            <mxPoint x="2" y="9" as="offset" />
          </mxGeometry>
        </mxCell>
        <mxCell id="BcjCfBdmmmzexc7s9DQg-45" value="enq &amp;lt; kp_ant&lt;br&gt;?" style="rhombus;whiteSpace=wrap;html=1;" vertex="1" parent="1">
          <mxGeometry x="40" y="275" width="100" height="90" as="geometry" />
        </mxCell>
        <mxCell id="BcjCfBdmmmzexc7s9DQg-66" style="edgeStyle=orthogonalEdgeStyle;rounded=0;orthogonalLoop=1;jettySize=auto;html=1;" edge="1" parent="1" source="BcjCfBdmmmzexc7s9DQg-47" target="BcjCfBdmmmzexc7s9DQg-67">
          <mxGeometry relative="1" as="geometry">
            <mxPoint x="410" y="460" as="targetPoint" />
          </mxGeometry>
        </mxCell>
        <mxCell id="BcjCfBdmmmzexc7s9DQg-74" value="Yes" style="edgeLabel;html=1;align=center;verticalAlign=middle;resizable=0;points=[];" vertex="1" connectable="0" parent="BcjCfBdmmmzexc7s9DQg-66">
          <mxGeometry x="-0.2712" y="-1" relative="1" as="geometry">
            <mxPoint as="offset" />
          </mxGeometry>
        </mxCell>
        <mxCell id="BcjCfBdmmmzexc7s9DQg-68" style="edgeStyle=orthogonalEdgeStyle;rounded=0;orthogonalLoop=1;jettySize=auto;html=1;" edge="1" parent="1" source="BcjCfBdmmmzexc7s9DQg-47" target="BcjCfBdmmmzexc7s9DQg-69">
          <mxGeometry relative="1" as="geometry">
            <mxPoint x="310" y="430" as="targetPoint" />
          </mxGeometry>
        </mxCell>
        <mxCell id="BcjCfBdmmmzexc7s9DQg-73" value="No" style="edgeLabel;html=1;align=center;verticalAlign=middle;resizable=0;points=[];" vertex="1" connectable="0" parent="BcjCfBdmmmzexc7s9DQg-68">
          <mxGeometry x="-0.5449" y="-1" relative="1" as="geometry">
            <mxPoint as="offset" />
          </mxGeometry>
        </mxCell>
        <mxCell id="BcjCfBdmmmzexc7s9DQg-47" value="deq" style="rhombus;whiteSpace=wrap;html=1;" vertex="1" parent="1">
          <mxGeometry x="370" y="330" width="80" height="80" as="geometry" />
        </mxCell>
        <mxCell id="BcjCfBdmmmzexc7s9DQg-75" style="edgeStyle=orthogonalEdgeStyle;rounded=0;orthogonalLoop=1;jettySize=auto;html=1;exitX=0.5;exitY=1;exitDx=0;exitDy=0;" edge="1" parent="1" source="BcjCfBdmmmzexc7s9DQg-49" target="BcjCfBdmmmzexc7s9DQg-76">
          <mxGeometry relative="1" as="geometry">
            <mxPoint x="580" y="490" as="targetPoint" />
          </mxGeometry>
        </mxCell>
        <mxCell id="BcjCfBdmmmzexc7s9DQg-77" value="Yes" style="edgeLabel;html=1;align=center;verticalAlign=middle;resizable=0;points=[];" vertex="1" connectable="0" parent="BcjCfBdmmmzexc7s9DQg-75">
          <mxGeometry x="-0.242" relative="1" as="geometry">
            <mxPoint as="offset" />
          </mxGeometry>
        </mxCell>
        <mxCell id="BcjCfBdmmmzexc7s9DQg-78" style="edgeStyle=orthogonalEdgeStyle;rounded=0;orthogonalLoop=1;jettySize=auto;html=1;entryX=1;entryY=0.75;entryDx=0;entryDy=0;" edge="1" parent="1" source="BcjCfBdmmmzexc7s9DQg-49" target="BcjCfBdmmmzexc7s9DQg-43">
          <mxGeometry relative="1" as="geometry">
            <Array as="points">
              <mxPoint x="670" y="370" />
              <mxPoint x="670" y="242" />
            </Array>
          </mxGeometry>
        </mxCell>
        <mxCell id="BcjCfBdmmmzexc7s9DQg-79" value="No" style="edgeLabel;html=1;align=center;verticalAlign=middle;resizable=0;points=[];" vertex="1" connectable="0" parent="BcjCfBdmmmzexc7s9DQg-78">
          <mxGeometry x="-0.9004" relative="1" as="geometry">
            <mxPoint as="offset" />
          </mxGeometry>
        </mxCell>
        <mxCell id="BcjCfBdmmmzexc7s9DQg-49" value="disp" style="rhombus;whiteSpace=wrap;html=1;" vertex="1" parent="1">
          <mxGeometry x="540" y="330" width="80" height="80" as="geometry" />
        </mxCell>
        <mxCell id="BcjCfBdmmmzexc7s9DQg-81" style="edgeStyle=orthogonalEdgeStyle;rounded=0;orthogonalLoop=1;jettySize=auto;html=1;" edge="1" parent="1" source="BcjCfBdmmmzexc7s9DQg-51" target="BcjCfBdmmmzexc7s9DQg-83">
          <mxGeometry relative="1" as="geometry">
            <mxPoint x="800" y="420" as="targetPoint" />
          </mxGeometry>
        </mxCell>
        <mxCell id="BcjCfBdmmmzexc7s9DQg-82" value="Yes" style="edgeLabel;html=1;align=center;verticalAlign=middle;resizable=0;points=[];" vertex="1" connectable="0" parent="BcjCfBdmmmzexc7s9DQg-81">
          <mxGeometry x="-0.2637" y="-1" relative="1" as="geometry">
            <mxPoint as="offset" />
          </mxGeometry>
        </mxCell>
        <mxCell id="BcjCfBdmmmzexc7s9DQg-84" style="edgeStyle=orthogonalEdgeStyle;rounded=0;orthogonalLoop=1;jettySize=auto;html=1;" edge="1" parent="1" source="BcjCfBdmmmzexc7s9DQg-51">
          <mxGeometry relative="1" as="geometry">
            <mxPoint x="540" y="240" as="targetPoint" />
            <Array as="points">
              <mxPoint x="710" y="315" />
              <mxPoint x="710" y="240" />
            </Array>
          </mxGeometry>
        </mxCell>
        <mxCell id="BcjCfBdmmmzexc7s9DQg-85" value="No" style="edgeLabel;html=1;align=center;verticalAlign=middle;resizable=0;points=[];" vertex="1" connectable="0" parent="BcjCfBdmmmzexc7s9DQg-84">
          <mxGeometry x="-0.8909" y="-1" relative="1" as="geometry">
            <mxPoint as="offset" />
          </mxGeometry>
        </mxCell>
        <mxCell id="BcjCfBdmmmzexc7s9DQg-51" value="ex" style="rhombus;whiteSpace=wrap;html=1;" vertex="1" parent="1">
          <mxGeometry x="760" y="275" width="80" height="80" as="geometry" />
        </mxCell>
        <mxCell id="BcjCfBdmmmzexc7s9DQg-65" style="edgeStyle=orthogonalEdgeStyle;rounded=0;orthogonalLoop=1;jettySize=auto;html=1;exitX=0;exitY=0.5;exitDx=0;exitDy=0;entryX=0;entryY=0.25;entryDx=0;entryDy=0;" edge="1" parent="1" source="BcjCfBdmmmzexc7s9DQg-55" target="BcjCfBdmmmzexc7s9DQg-43">
          <mxGeometry relative="1" as="geometry">
            <mxPoint x="430" y="200" as="targetPoint" />
            <Array as="points">
              <mxPoint x="-90" y="410" />
              <mxPoint x="-140" y="410" />
              <mxPoint x="-140" y="220" />
              <mxPoint x="430" y="220" />
            </Array>
          </mxGeometry>
        </mxCell>
        <mxCell id="BcjCfBdmmmzexc7s9DQg-55" value="print&lt;br&gt;ant_full" style="shape=parallelogram;perimeter=parallelogramPerimeter;whiteSpace=wrap;html=1;fixedSize=1;" vertex="1" parent="1">
          <mxGeometry x="-100" y="370" width="120" height="60" as="geometry" />
        </mxCell>
        <mxCell id="BcjCfBdmmmzexc7s9DQg-60" style="edgeStyle=orthogonalEdgeStyle;rounded=0;orthogonalLoop=1;jettySize=auto;html=1;entryX=0;entryY=0.25;entryDx=0;entryDy=0;" edge="1" parent="1" source="BcjCfBdmmmzexc7s9DQg-57" target="BcjCfBdmmmzexc7s9DQg-43">
          <mxGeometry relative="1" as="geometry">
            <mxPoint x="390" y="220" as="targetPoint" />
            <Array as="points">
              <mxPoint x="-140" y="455" />
              <mxPoint x="-140" y="219" />
            </Array>
          </mxGeometry>
        </mxCell>
        <mxCell id="BcjCfBdmmmzexc7s9DQg-57" value="add ant" style="rounded=0;whiteSpace=wrap;html=1;" vertex="1" parent="1">
          <mxGeometry x="30" y="430" width="120" height="50" as="geometry" />
        </mxCell>
        <mxCell id="BcjCfBdmmmzexc7s9DQg-70" style="edgeStyle=orthogonalEdgeStyle;rounded=0;orthogonalLoop=1;jettySize=auto;html=1;entryX=0;entryY=0.75;entryDx=0;entryDy=0;" edge="1" parent="1" source="BcjCfBdmmmzexc7s9DQg-67" target="BcjCfBdmmmzexc7s9DQg-43">
          <mxGeometry relative="1" as="geometry">
            <mxPoint x="200" y="240" as="targetPoint" />
            <Array as="points">
              <mxPoint x="200" y="515" />
              <mxPoint x="200" y="244" />
            </Array>
          </mxGeometry>
        </mxCell>
        <mxCell id="BcjCfBdmmmzexc7s9DQg-67" value="del ant" style="rounded=0;whiteSpace=wrap;html=1;" vertex="1" parent="1">
          <mxGeometry x="355" y="490" width="110" height="50" as="geometry" />
        </mxCell>
        <mxCell id="BcjCfBdmmmzexc7s9DQg-71" style="edgeStyle=orthogonalEdgeStyle;rounded=0;orthogonalLoop=1;jettySize=auto;html=1;entryX=0.032;entryY=0.681;entryDx=0;entryDy=0;entryPerimeter=0;" edge="1" parent="1" source="BcjCfBdmmmzexc7s9DQg-69" target="BcjCfBdmmmzexc7s9DQg-43">
          <mxGeometry relative="1" as="geometry">
            <mxPoint x="430" y="270" as="targetPoint" />
            <Array as="points">
              <mxPoint x="200" y="445" />
              <mxPoint x="200" y="244" />
              <mxPoint x="427" y="244" />
              <mxPoint x="427" y="241" />
            </Array>
          </mxGeometry>
        </mxCell>
        <mxCell id="BcjCfBdmmmzexc7s9DQg-69" value="print&lt;br&gt;ant_empt" style="shape=parallelogram;perimeter=parallelogramPerimeter;whiteSpace=wrap;html=1;fixedSize=1;" vertex="1" parent="1">
          <mxGeometry x="235" y="415" width="120" height="60" as="geometry" />
        </mxCell>
        <mxCell id="BcjCfBdmmmzexc7s9DQg-80" style="edgeStyle=orthogonalEdgeStyle;rounded=0;orthogonalLoop=1;jettySize=auto;html=1;" edge="1" parent="1" source="BcjCfBdmmmzexc7s9DQg-76">
          <mxGeometry relative="1" as="geometry">
            <mxPoint x="540" y="240" as="targetPoint" />
            <Array as="points">
              <mxPoint x="670" y="505" />
              <mxPoint x="670" y="240" />
            </Array>
          </mxGeometry>
        </mxCell>
        <mxCell id="BcjCfBdmmmzexc7s9DQg-76" value="print&lt;br&gt;ant" style="shape=parallelogram;perimeter=parallelogramPerimeter;whiteSpace=wrap;html=1;fixedSize=1;" vertex="1" parent="1">
          <mxGeometry x="520" y="480" width="120" height="50" as="geometry" />
        </mxCell>
        <mxCell id="BcjCfBdmmmzexc7s9DQg-83" value="end" style="ellipse;whiteSpace=wrap;html=1;" vertex="1" parent="1">
          <mxGeometry x="760" y="420" width="80" height="30" as="geometry" />
        </mxCell>
        <mxCell id="BcjCfBdmmmzexc7s9DQg-86" value="Arif Frima Ari Suwadji&lt;br&gt;221011700443" style="text;html=1;strokeColor=none;fillColor=none;align=center;verticalAlign=middle;whiteSpace=wrap;rounded=0;" vertex="1" parent="1">
          <mxGeometry x="100" y="40" width="160" height="30" as="geometry" />
        </mxCell>
      </root>
    </mxGraphModel>
  </diagram>
</mxfile>
